<svg xmlns="http://www.w3.org/2000/svg" width="120" height="40px" viewBox="0 0 1900.65 510">
  <title>upgrowth_logo</title>
  <path
    d="M323.4,314.16C323.4,264.84,350.11,170,392.26,62c-5.05-10.12-18.54-16.44-36.67-16.44-15.18,0-32.46,4.63-50.59,16-14.76,35-27.41,69.15-38.37,101.61-43.42,75.88-87,135.34-104.27,135.34-10.54,0-16.86-6.32-16.86-21.5,0-50.17,48.62-160.21,65.49-190.57,10.83-20.24,31.19-59.86,31.19-59.86a19.49,19.49,0,0,0-1.69-8.86c-25.7-22.89-100.77-15-100.77-15C46.21,14.76-1.26,67.7,0,110.63c2,66.75,48.71,51.93,48.71,51.93,0-38.73,27-85,87.92-87.46l-.72,1.7C85.78,145.93,52.75,253.45,52.75,301.94c0,45.52,17.7,75.46,56.49,75.46,24.87,0,67-24.45,127.73-99.91a271,271,0,0,0-2.52,35.83c0,44.26,24.45,57.75,49.32,57.75,18.55,0,34.15-5.9,49.75-16C326.77,346.62,323.4,333.13,323.4,314.16Zm217.7-191.9c-12.65,2.1-24.87,6.32-58.6,29.08,3.36-8.42,5.05-12.22,5.48-15.17-2.12-16.44-14.76-32-49.75-32a172.94,172.94,0,0,0-27,2.53c0,15.17-19.69,109.27-38.65,161.13l-17.71,14.33c-8,6.32-14.34,19-14.34,31.2a23.73,23.73,0,0,0,3,12.22,115,115,0,0,0,14.75-12.65L341,368.54c-13.49,43.85-18.12,64.09-19.39,76.31,8,14.76,23.62,26.14,42.58,26.14,11.38,0,22.77-3.37,35-12.23,2.94-17.28,8-38.78,13.49-58.6l56.7-195.64c13.07-8.85,19-11,24-11,6.32,0,9.69,3.8,9.69,11.81,0,33.3-43.21,121.44-62.61,121.44a34.64,34.64,0,0,1-3.38-.85c8.44,32.47,23.2,45.11,43.85,45.11,35.41,0,105.61-103.31,105.61-179.62C586.55,160.68,574.82,126.05,541.1,122.26ZM1899.8,256c-31.62,31.62-44.69,40-49.32,40-2.54,0-3.8-1.69-3.8-4.63,5.49-23.61,29.52-81.37,32.89-101.6-4.64-18.14-19.4-29.1-37.53-29.1-20.66,0-45.11,13.92-94.43,80.11-1.27,1.26-3.79,2.1-7.59,2.1,22.77-56.49,72.17-193.58,73.43-213.82C1808,7.59,1787.31,0,1758.65,0A175.65,175.65,0,0,0,1738,1.26c-1.27,13.91-26,92.06-56.36,188.61L1658.1,267.4c-26,24.14-44.11,35.38-52.57,35.38-7.16,0-8.43-5.91-8.43-15.6l37.37-126.27,28.67-5.06c9.7-9.69,19.81-31.2,21.08-45.53l-35.84,3.8,8-26.14c-3.78-13.07-19.39-20.66-44.68-20.66a152.9,152.9,0,0,0-29.94,3l-16.43,52.28-11.39.84c-8,5.48-17.28,19.4-17.28,36.68a80.15,80.15,0,0,0,1.69,16.44l10.11-1.69L1500.55,334c6.75,21.08,32.89,37.1,56.5,37.1,14.34,0,47.32-9.59,85.65-54.46l-8.07,25.8c9.69,16.86,24,28.66,42.16,28.66,16.43,0,30.34-8,39.2-26.13,10.12-20.24,46.38-101.61,63.24-101.61a6,6,0,0,1,5.9,4.22l-19.81,49.32c-9.7,24-14.75,43.43-15.18,50.59,9.69,16.87,25.72,23.61,42.16,23.61,22.76,0,56.91-21.08,101.18-80.94,3.37-4.64,7.17-13.49,7.17-24.87A69.14,69.14,0,0,0,1899.8,256ZM1521.89,129.26c-4.64-7.17-13.49-12.64-26.56-12.64-12.23,0-26.56,4.63-40.47,17.7,5.06,4.64,7.59,11.8,7.59,27,0,23.61-21.76,101.43-42,141.9a6.8,6.8,0,0,1-3.79,1.27c-8,0-13.49-4.65-13.49-21.51,0-20.66,11.7-70.15,30.25-114-13.07-11.38-27-16.44-40.47-16.44-25.3,0-47.22,17.71-52.28,48.06l-57.23,91.66c-3.8,0-5.06-.84-5.06-5.91,3.37-17.7,11.38-60.4,16.86-71.36q17.7-24.66,17.7-39.21a31.22,31.22,0,0,0-1.26-8c-9.7-10.54-25.3-16.87-39.21-16.87-11.78,0-22.68,3-31.89,10-25.16,12.88-53.76,15.2-67.49,10.16-11.35-6.69-26.58-10.3-46.28-10.3-55.22,0-111.71,37.1-135.32,105.4-3,8-7.17,26.14-7.17,39.21,0,40.05,21.08,65.76,72.94,65.76,55.22,0,111.72-37.1,135.33-105.39,3.37-8,7.16-26.56,7.16-39.21a89.17,89.17,0,0,0-2.82-23.11,77.12,77.12,0,0,0,21.56,2.48,130.93,130.93,0,0,0-3.35,13.88l-24.45,129.43c16.86,15.18,36.25,21.92,51.44,21.92,10.53,0,22.76-4.63,29.92-11l51.86-70.82c-.42,4.63-1.27,14.75-1.27,18.54,0,35.84,13.92,63.24,54.39,63.24,92.9,0,146.12-151.59,146.12-227.47C1523.15,138.11,1523.15,134.74,1521.89,129.26ZM1106.16,269.47c-11.38,30.35-21.5,50.17-29.51,54.8-7.58,0-11.38-4.63-11.38-13.49,0-9.27,5.9-31.61,12.64-48.48,11.39-30.35,21.5-50.16,29.52-54.8,7.58,0,11.38,4.64,11.38,13.49C1118.81,230.27,1112.9,252.61,1106.16,269.47ZM1015.74,180a22.6,22.6,0,0,0-18.5-11.67c-18.91-1.54-35,3.49-72.54,54.13-.94,1.19-3.53,1.83-7.73,1.49,9.5-17.84,19.55-41.68,20.69-50.47-2.54-10.36-14.38-15.56-29.92-16.83a162.88,162.88,0,0,0-52,4.63,101.42,101.42,0,0,1-.3,13.93c-1.18,14.41-11.07,49.72-21.58,81.59-16.74,17.83-37.47,34.42-57.82,47.72C799.24,231.53,819.63,172.07,826,159c-5.48-8-10.12-11.38-18.13-11.38-10.12,0-29.09,2.11-57.76,13.49C735.3,152.26,725.19,140,705,140c-56.08,0-129.58,86.06-129.58,175,0,28.66,13.91,51.43,48.06,56.06,11.38,0,32.46-17.7,77.16-73.35,1.26-1.69,4.21-2.53,8-2.53-3.15,8-6.68,17.34-10.08,28.23a156.25,156.25,0,0,0-21.39,14.74s-120.57,105.38-46,166.52c15.65,12.83,47.59,2.32,82.66-30.09,41.54-38.39,44.73-75.28,54.65-121.63,19-15.35,38.93-37.63,51.76-54.3-6.7,21-11.89,39-12.65,48.25,4.53,11.79,16.8,17,33.18,18.36,13,1.07,34.73-.54,46.94-5A351.22,351.22,0,0,1,903,306.5c16.31-44.35,26.69-57.45,33.17-59,16.28,7.68,31.21,11.44,41.72,12.3,5.45.45,9.37-.93,12.56-3.62C991.84,239.33,995.88,226.12,1015.74,180ZM701.57,417.37c-24.36,23.32-38.48,28.08-45.18,21.08,0,0-6.85-5.72,12.5-20.81l37.16-27.3c3.34-2.61,6.63-3.44,9.54-.39C720,394.52,714.06,405.42,701.57,417.37ZM659.7,300.25c-3.8,0-5.06-3-5.06-6.33,0-21.08,37.1-87.69,56.92-87.69,4.63,0,9.69,2.53,13.07,5.91C697.64,261.88,666.87,300.25,659.7,300.25Z"/>
</svg>
